<mxfile host="app.diagrams.net" modified="2023-05-10T01:33:50.346Z" agent="Mozilla/5.0 (Windows NT 10.0; Win64; x64; rv:109.0) Gecko/20100101 Firefox/112.0" etag="wmq6phyqhXZS1c4wXDf8" version="21.1.9" type="device">
  <diagram name="Page-1" id="qL5SCBdXm7aE8vshen_M">
    <mxGraphModel dx="1434" dy="718" grid="1" gridSize="10" guides="1" tooltips="1" connect="1" arrows="1" fold="1" page="1" pageScale="1" pageWidth="850" pageHeight="1100" math="0" shadow="0">
      <root>
        <mxCell id="0" />
        <mxCell id="1" parent="0" />
        <mxCell id="5xxlPet6-XiZ8pjPKJ0_-1" value="&lt;div&gt;Event Handler Delegate&lt;br&gt;&lt;div align=&quot;left&quot;&gt;&lt;ul&gt;&lt;li&gt;defines&amp;nbsp; return type and parameters for event handlers&lt;br&gt;&lt;/li&gt;&lt;/ul&gt;&lt;/div&gt;&lt;/div&gt;" style="ellipse;whiteSpace=wrap;html=1;aspect=fixed;fillColor=#dae8fc;strokeColor=#6c8ebf;" vertex="1" parent="1">
          <mxGeometry x="110" y="150" width="260" height="260" as="geometry" />
        </mxCell>
        <mxCell id="5xxlPet6-XiZ8pjPKJ0_-2" value="" style="endArrow=classic;html=1;rounded=0;exitX=0.5;exitY=1;exitDx=0;exitDy=0;" edge="1" parent="1" source="5xxlPet6-XiZ8pjPKJ0_-1">
          <mxGeometry width="50" height="50" relative="1" as="geometry">
            <mxPoint x="340" y="500" as="sourcePoint" />
            <mxPoint x="400" y="550" as="targetPoint" />
          </mxGeometry>
        </mxCell>
        <mxCell id="5xxlPet6-XiZ8pjPKJ0_-4" value="&lt;div&gt;Event&lt;/div&gt;&lt;div align=&quot;left&quot;&gt;&lt;ul&gt;&lt;li&gt;Needs a delegate and event name&lt;br&gt;&lt;/li&gt;&lt;/ul&gt;&lt;/div&gt;" style="ellipse;whiteSpace=wrap;html=1;fillColor=#d5e8d4;strokeColor=#82b366;" vertex="1" parent="1">
          <mxGeometry x="210" y="550" width="500" height="120" as="geometry" />
        </mxCell>
        <mxCell id="5xxlPet6-XiZ8pjPKJ0_-5" value="" style="endArrow=classic;html=1;rounded=0;" edge="1" parent="1">
          <mxGeometry width="50" height="50" relative="1" as="geometry">
            <mxPoint x="560" y="550" as="sourcePoint" />
            <mxPoint x="790" y="370" as="targetPoint" />
          </mxGeometry>
        </mxCell>
        <mxCell id="5xxlPet6-XiZ8pjPKJ0_-6" value="Can now invoke the event&lt;br&gt;&lt;div align=&quot;left&quot;&gt;&lt;ul&gt;&lt;li&gt;when invoked, it needs the arguments the event handler needs&lt;br&gt;&lt;/li&gt;&lt;/ul&gt;&lt;/div&gt;" style="ellipse;whiteSpace=wrap;html=1;fillColor=#ffe6cc;strokeColor=#d79b00;" vertex="1" parent="1">
          <mxGeometry x="690" y="230" width="320" height="140" as="geometry" />
        </mxCell>
        <mxCell id="5xxlPet6-XiZ8pjPKJ0_-7" value="&lt;div&gt;Handle Event in Another class&lt;/div&gt;&lt;div align=&quot;left&quot;&gt;&lt;ul&gt;&lt;li&gt;theobject.Event += anEventHandler&lt;br&gt;&lt;/li&gt;&lt;/ul&gt;&lt;/div&gt;" style="ellipse;whiteSpace=wrap;html=1;fillColor=#fff2cc;strokeColor=#d6b656;" vertex="1" parent="1">
          <mxGeometry x="950" y="490" width="330" height="140" as="geometry" />
        </mxCell>
        <mxCell id="5xxlPet6-XiZ8pjPKJ0_-8" value="" style="endArrow=classic;html=1;rounded=0;exitX=1;exitY=1;exitDx=0;exitDy=0;entryX=0.47;entryY=-0.007;entryDx=0;entryDy=0;entryPerimeter=0;" edge="1" parent="1" source="5xxlPet6-XiZ8pjPKJ0_-6" target="5xxlPet6-XiZ8pjPKJ0_-7">
          <mxGeometry width="50" height="50" relative="1" as="geometry">
            <mxPoint x="1040" y="410" as="sourcePoint" />
            <mxPoint x="1090" y="360" as="targetPoint" />
          </mxGeometry>
        </mxCell>
        <mxCell id="5xxlPet6-XiZ8pjPKJ0_-9" value="" style="endArrow=none;dashed=1;html=1;rounded=0;" edge="1" parent="1" source="5xxlPet6-XiZ8pjPKJ0_-1">
          <mxGeometry width="50" height="50" relative="1" as="geometry">
            <mxPoint x="410" y="180" as="sourcePoint" />
            <mxPoint x="460" y="130" as="targetPoint" />
          </mxGeometry>
        </mxCell>
        <mxCell id="5xxlPet6-XiZ8pjPKJ0_-10" value="An parameter may implement EventArgs&lt;br&gt;&lt;div align=&quot;left&quot;&gt;&lt;ul&gt;&lt;li&gt;allows you to contain event info in a class, that can be used everytime event is raised&lt;br&gt;&lt;/li&gt;&lt;/ul&gt;&lt;/div&gt;" style="ellipse;whiteSpace=wrap;html=1;fillColor=#f8cecc;strokeColor=#b85450;" vertex="1" parent="1">
          <mxGeometry x="450" y="50" width="380" height="120" as="geometry" />
        </mxCell>
      </root>
    </mxGraphModel>
  </diagram>
</mxfile>
